# xmcd CD database file
#
# Track frame offsets:
#	150
#	16236
#	35999
#	52550
#	70148
#	83905
#	99282
#	113557
#	127244
#	147837
#
# Disc length: 2210 seconds
#
# Revision: 0
# Processed by: cddbd v1.5.2PL0 Copyright (c) Steve Scherf et al.
# Submitted via: CDex 1.70beta2
#
DISCID=7e08a00a
DTITLE=POWERSTROKE - AWAKEN THE BEAST (2012 ALBUM)
DYEAR=2012
DGENRE=Thrash Metal
TTITLE0=THE POWER AND THE STRENGTH
TTITLE1=CENTERFOLD
TTITLE2=SENSE OF HONOUR
TTITLE3=HERO TOLERANCE
TTITLE4=GOOD FOR NOTHING
TTITLE5=POINT OF VIEW
TTITLE6=WATCH and LEARN
TTITLE7=THUMBS DOWN
TTITLE8=THE END OF THINGS TO COME
TTITLE9=DEATH BY BROKEN HEART
EXTD=YEAR: 2012
EXTT0=
EXTT1=
EXTT2=
EXTT3=
EXTT4=
EXTT5=
EXTT6=
EXTT7=
EXTT8=
EXTT9=
PLAYORDER=
